<?xml version="1.0" encoding="UTF-8"?>
<svg xmlns="http://www.w3.org/2000/svg" xmlns:xlink="http://www.w3.org/1999/xlink" width="16px" height="13px" viewBox="0 0 9 13" version="1.1">
<g>
<path style=" stroke:none;fill-rule:nonzero;fill:rgb(0%,0%,0%);fill-opacity:1;" d="M 4.78125 0.164062 C 2.375 0.164062 0 1.902344 0 4.710938 C 0 6.5 0.929688 7.515625 1.492188 7.515625 C 1.722656 7.515625 1.855469 6.816406 1.855469 6.617188 C 1.855469 6.378906 1.300781 5.878906 1.300781 4.894531 C 1.300781 2.855469 2.734375 1.40625 4.589844 1.40625 C 6.1875 1.40625 7.367188 2.390625 7.367188 4.195312 C 7.367188 5.542969 6.871094 8.070312 5.253906 8.070312 C 4.667969 8.070312 4.167969 7.613281 4.167969 6.960938 C 4.167969 6 4.789062 5.070312 4.789062 4.082031 C 4.789062 2.398438 2.585938 2.703125 2.585938 4.734375 C 2.585938 5.160156 2.636719 5.632812 2.8125 6.023438 C 2.488281 7.53125 1.828125 9.777344 1.828125 11.332031 C 1.828125 11.8125 1.890625 12.285156 1.933594 12.765625 C 2.011719 12.859375 1.972656 12.851562 2.09375 12.800781 C 3.277344 11.050781 3.234375 10.707031 3.769531 8.414062 C 4.058594 9.007812 4.800781 9.328125 5.394531 9.328125 C 7.882812 9.328125 9 6.699219 9 4.332031 C 9 1.808594 6.988281 0.164062 4.78125 0.164062 Z M 4.78125 0.164062 "/>
</g>
</svg>
